<svg xmlns="http://www.w3.org/2000/svg" width="101.962" height="67.844" viewBox="0 0 101.962 67.844">
  <path id="noun_3D_Glasses_78403" data-name="noun_3D Glasses_78403" d="M99.965,27.071,76.317.773A2.558,2.558,0,0,0,74.539,0c-.045,0-.09,0-.133,0L58.5,1.191a1.373,1.373,0,0,0-1.26,1.642l.782,4.1A1.59,1.59,0,0,0,59.565,8.2c.04,0,.08,0,.121,0l9.634-.8h.006a1.31,1.31,0,0,1,.85.34L88.333,27.932a2.781,2.781,0,0,0,1.867.832h9.011a.964.964,0,0,0,.753-1.693Zm-56.5-25.88L27.557,0c-.044,0-.088,0-.133,0a2.561,2.561,0,0,0-1.78.773L2,27.072A1.017,1.017,0,0,0,1.74,28.2a1.018,1.018,0,0,0,1.013.563h9.01a2.776,2.776,0,0,0,1.867-.832L31.785,7.741A1.307,1.307,0,0,1,32.6,7.4l9.677.8c.042,0,.083,0,.123,0a1.592,1.592,0,0,0,1.546-1.275l.778-4.1a1.371,1.371,0,0,0-1.259-1.642ZM97.919,33.569a1.107,1.107,0,0,1,1.1,1.1V63.8a1.106,1.106,0,0,1-1.1,1.1H61.677a5.915,5.915,0,0,1-1.1-.052v-.026c0-9.187-4.321-16.768-9.65-16.768s-9.65,7.58-9.65,16.768v.026a5.945,5.945,0,0,1-1.1.052H4.044a1.105,1.105,0,0,1-1.1-1.1V34.673a1.106,1.106,0,0,1,1.1-1.1H97.919m0-2.941H4.044A4.05,4.05,0,0,0,0,34.673V63.8a4.05,4.05,0,0,0,4.044,4.043h36.13c1.227,0,2.291,0,3.206-.938a2.954,2.954,0,0,0,.836-2.059v-.024c0-7.913,3.54-13.827,6.71-13.827s6.708,5.914,6.708,13.827a3.017,3.017,0,0,0,.837,2.082c.913.938,1.975.938,3.206.938H97.919a4.049,4.049,0,0,0,4.043-4.043V34.673a4.05,4.05,0,0,0-4.043-4.044ZM39.092,38.053V60a.85.85,0,0,1-.85.85H6.812a.85.85,0,0,1-.85-.85V38.053a.85.85,0,0,1,.85-.85H38.244A.85.85,0,0,1,39.092,38.053Zm56.908,0V60a.85.85,0,0,1-.85.85H63.721a.85.85,0,0,1-.85-.85V38.053a.85.85,0,0,1,.85-.85h31.43A.85.85,0,0,1,96,38.053Z" fill="#d30b44"/>
</svg>
