<svg xmlns="http://www.w3.org/2000/svg" width="79.81" height="74" viewBox="0 0 79.81 74">
  <g id="noun_4K_2548921" transform="translate(-2.5 229.5)">
    <g id="Group_20" data-name="Group 20" transform="translate(2.5 -229.5)">
      <path id="Path_43" data-name="Path 43" d="M80.354,10.5H4.6a2.211,2.211,0,0,0-2.1,2.342V66.8a2.211,2.211,0,0,0,2.1,2.342H39.113V77.1H29.854a1.182,1.182,0,0,0-1.094,1.218v4.965A1.182,1.182,0,0,0,29.854,84.5H54.936a1.182,1.182,0,0,0,1.094-1.218V78.318A1.182,1.182,0,0,0,54.936,77.1H45.678V69.138H80.186a2.211,2.211,0,0,0,2.1-2.342V12.842A1.992,1.992,0,0,0,80.354,10.5ZM75.894,61.925H9.065V17.9H75.809V61.925Z" transform="translate(-2.5 -10.5)" fill="#d30b44"/>
      <g id="Group_21" data-name="Group 21" transform="translate(0 4)">
        <path id="Path_44" data-name="Path 44" d="M53.226,50.358h3.451a.843.843,0,0,0,.842-.842v-5.05l1.094-1.431,3.956,6.9a.858.858,0,0,0,.673.421H67.2a.78.78,0,0,0,.673-1.178l-6.06-10.521,5.892-8a.793.793,0,0,0-.673-1.263H62.737a.765.765,0,0,0-.673.337l-4.629,6.313V30.242a.843.843,0,0,0-.842-.842H53.142a.843.843,0,0,0-.842.842V49.6A.916.916,0,0,0,53.226,50.358Z" transform="translate(-10.385 -13.492)" fill="#d30b44"/>
        <path id="Path_45" data-name="Path 45" d="M29.926,42.346h9.511V49.5a.843.843,0,0,0,.842.842h3.451a.843.843,0,0,0,.842-.842V30.142a.843.843,0,0,0-.842-.842H40.278a.843.843,0,0,0-.842.842V37.3h-5.3V30.142a.843.843,0,0,0-.842-.842H29.842a.843.843,0,0,0-.842.842V41.5A.918.918,0,0,0,29.926,42.346Z" transform="translate(-6.696 -13.477)" fill="#d30b44"/>
      </g>
    </g>
  </g>
</svg>
