<svg id="noun_sun_3368745" xmlns="http://www.w3.org/2000/svg" width="62" height="62" viewBox="0 0 62 62">
  <path id="Path_15" data-name="Path 15" d="M78.237,58a20.238,20.238,0,1,1-14.35,34.588h0A19.994,19.994,0,0,1,58,78.237a20.313,20.313,0,0,1,5.887-14.35h0A20.313,20.313,0,0,1,78.237,58Zm.368,2.944V95.715a17.388,17.388,0,0,0,0-34.772Z" transform="translate(-47.329 -47.329)" fill="#fcfcfc"/>
  <path id="Path_16" data-name="Path 16" d="M163.128,0V6.439H160V0Zm0,55.561V62H160V55.561Z" transform="translate(-130.564)" fill="#fcfcfc"/>
  <path id="Path_17" data-name="Path 17" d="M62,163.128H55.561V160H62Zm-55.561,0H0V160H6.439Z" transform="translate(0 -130.564)" fill="#fcfcfc"/>
  <path id="Path_18" data-name="Path 18" d="M86.786,88.994l-4.6-4.415,2.392-2.392,4.415,4.6ZM47.6,49.807l-4.6-4.6L45.208,43l4.6,4.6Z" transform="translate(-35.089 -35.089)" fill="#fcfcfc"/>
  <path id="Path_19" data-name="Path 19" d="M43,86.786l4.6-4.6,2.208,2.392-4.6,4.415ZM82.187,47.6l4.6-4.6,2.208,2.208-4.415,4.6Z" transform="translate(-35.089 -35.089)" fill="#fcfcfc"/>
</svg>
