<svg xmlns="http://www.w3.org/2000/svg" width="71.147" height="79.799" viewBox="0 0 71.147 79.799">
  <g id="noun_Hand_Wash_3321308" data-name="noun_Hand Wash_3321308" transform="translate(-8 -6.108)">
    <path id="Path_46" data-name="Path 46" d="M52.467,81.461H19.117v-6.67a2.2,2.2,0,0,0-.18-.875l-6.49-15.144V45.017a3.335,3.335,0,1,1,6.67,0v7.541a2.222,2.222,0,0,0,.487,1.39L28.5,65.064a2.224,2.224,0,0,0,3.472-2.779L23.563,51.778V19.448a2.223,2.223,0,1,1,4.447,0V41.441a2.223,2.223,0,1,0,4.447,0V12.778a2.223,2.223,0,1,1,4.447,0v20.01a2.223,2.223,0,0,0,4.447,0V19.448a2.223,2.223,0,1,1,4.447,0V28.1c0,.028.015.052.016.08,0,.055-.016.106-.016.161a2.223,2.223,0,1,0,4.447,0,2.223,2.223,0,0,1,4.074-1.231,2.223,2.223,0,1,0,3.7-2.467,6.662,6.662,0,0,0-5.551-2.972,6.589,6.589,0,0,0-2.223.41V19.448a6.677,6.677,0,0,0-6.67-6.67,6.589,6.589,0,0,0-2.223.41v-.41a6.67,6.67,0,1,0-13.34,0v.41a6.589,6.589,0,0,0-2.223-.41,6.677,6.677,0,0,0-6.67,6.67V38.017a7.693,7.693,0,0,0-3.335-.781A7.791,7.791,0,0,0,8,45.018v14.21a2.2,2.2,0,0,0,.18.875l6.49,15.144v8.437a2.223,2.223,0,0,0,2.223,2.223H52.467a2.223,2.223,0,1,0,0-4.447Z" transform="translate(0 0)" fill="#d30b44"/>
    <path id="Path_47" data-name="Path 47" d="M42.233,18A22.233,22.233,0,1,0,64.467,40.233,22.233,22.233,0,0,0,42.233,18Zm0,40.02A17.787,17.787,0,1,1,60.02,40.233,17.787,17.787,0,0,1,42.233,58.02Z" transform="translate(14.68 14.547)" fill="#d30b44"/>
    <path id="Path_48" data-name="Path 48" d="M43.055,26.091l-9.432,9.432-4.717-4.716a2.223,2.223,0,1,0-3.144,3.144l6.289,6.288a2.223,2.223,0,0,0,3.144,0l11.006-11a2.223,2.223,0,1,0-3.144-3.144Z" transform="translate(20.933 23.648)" fill="#d30b44"/>
  </g>
</svg>
