<svg xmlns="http://www.w3.org/2000/svg" width="71.166" height="71.255" viewBox="0 0 71.166 71.255">
  <g id="noun_shutter_2448860" transform="translate(-4.124 -267.241)">
    <path id="Path_49" data-name="Path 49" d="M31.986,281.155A13.965,13.965,0,1,1,18.022,295.12,13.965,13.965,0,0,1,31.986,281.155Zm-19.6-9.555a3.912,3.912,0,0,0-3.92,3.92v39.2a3.912,3.912,0,0,0,3.92,3.92h39.2a3.912,3.912,0,0,0,3.92-3.92v-39.2a3.912,3.912,0,0,0-3.92-3.92Z" transform="translate(7.721 7.749)" fill="#d30b44"/>
    <path id="Path_50" data-name="Path 50" d="M5.163,267.367a1.146,1.146,0,0,0-1.036,1.17c0,.03,0,.06,0,.09v15.119a1.165,1.165,0,0,0,1.039,1.261H9.313a1.165,1.165,0,0,0,1.039-1.261V273.458H20.5a1.26,1.26,0,0,0,1.26-1.26v-3.571a1.26,1.26,0,0,0-1.26-1.26H5.163Z" transform="translate(0 0.223)" fill="#d30b44"/>
    <path id="Path_51" data-name="Path 51" d="M41,268.28a1.146,1.146,0,0,0-1.17-1.036c-.03,0-.06,0-.09,0H24.621a1.165,1.165,0,0,0-1.261,1.039v4.151a1.165,1.165,0,0,0,1.261,1.039H34.908v10.152a1.26,1.26,0,0,0,1.26,1.26h3.571a1.26,1.26,0,0,0,1.26-1.26V268.28Z" transform="translate(34.199 0)" fill="#d30b44"/>
    <g id="Group_22" data-name="Group 22" transform="translate(75.29 338.496) rotate(180)">
      <path id="Path_52" data-name="Path 52" d="M1.038,0A1.146,1.146,0,0,0,0,1.17c0,.03,0,.06,0,.09V16.379A1.165,1.165,0,0,0,1.039,17.64H5.189a1.165,1.165,0,0,0,1.039-1.261V6.091H16.38a1.26,1.26,0,0,0,1.26-1.26V1.26A1.26,1.26,0,0,0,16.38,0H1.038Z" transform="translate(0 0.348)" fill="#d30b44"/>
      <path id="Path_53" data-name="Path 53" d="M17.64,1.038A1.146,1.146,0,0,0,16.47,0c-.03,0-.06,0-.09,0H1.261A1.165,1.165,0,0,0,0,1.039V5.189A1.165,1.165,0,0,0,1.261,6.228H11.549V16.38a1.26,1.26,0,0,0,1.26,1.26H16.38a1.26,1.26,0,0,0,1.26-1.26V1.038Z" transform="translate(53.434 0)" fill="#d30b44"/>
    </g>
  </g>
</svg>
