<svg height="48.729" viewBox="0 0 117.774 48.729" width="117.774" xmlns="http://www.w3.org/2000/svg"><path d="m101.9 21.191a64.643 64.643 0 0 1 -7.249.715l-.651 2.075a30.3 30.3 0 0 1 4.509-.034.654.654 0 0 1 .681.681 11.514 11.514 0 0 1 -.051 1.531.745.745 0 0 1 -.681.579c-.732.119-5.666.34-5.666.34l-.8 2.688s-.289.613.374.442a45.67 45.67 0 0 1 6.466-1.021 1.861 1.861 0 0 1 1.293 2.042c-.272 1.072-5.445 4.373-8.576 4.152 0 0-1.65.1-3.029-2.127-1.327-2.127.459-6.126.459-6.126s-.8-1.872-.2-2.552a2.577 2.577 0 0 1 1.361-.376l1.276-2.62a2.97 2.97 0 0 1 -2.3-.97c-.783-1.021-.851-1.463-.238-1.736a42.053 42.053 0 0 1 10.757-1.274s1.446-.17 2.722 2.331c0 0 .579 1.021-.442 1.259m-15.535 10.074c-.51 1.242-1.923 2.552-3.624 1.753-1.736-.817-4.475-6.4-4.475-6.4s-1.021-2.076-1.225-2.008c0 0-.221-.408-.34 1.872-.17 2.263.034 6.67-.9 7.368a1.649 1.649 0 0 1 -2.45-.408c-.476-.8-.681-2.722-.408-6.074.306-3.352 1.072-6.925 2.042-8.031a1.3 1.3 0 0 1 2.144 0 24.829 24.829 0 0 1 3.522 4.713l.374.647a29.753 29.753 0 0 0 2.212 3.335s.17.17.306.034c.2-.051.136-1.14.136-1.14a57.425 57.425 0 0 0 -2.246-9.75 3.042 3.042 0 0 1 -.085-1.531c.17-.681.9-.34.9-.34s2.825 1.361 4.2 5.955a16.912 16.912 0 0 1 -.063 10.005m-13.871-11.792c-.272.476-.391 1.14-1.565 1.327 0 0-11.4.8-11.962 1.6 0 0-.374.476.238.6.647.136 3.233.476 4.458.544 1.327 0 5.785.034 7.419 2.042a4.451 4.451 0 0 1 .9 3.114c-.034 2.212-.425 2.995-1.293 3.794-.9.749-8.627 4.22-13.612-1.089a2.818 2.818 0 0 1 .8-4.492s2.212-1.361 7.878.221c0 0 1.7.613 1.633 1.242-.1.681-1.412 1.361-3.318 1.327a6.55 6.55 0 0 1 -2.927-.783c.255.085-1.991-1.089-2.688-.289-.681.749-.51 1.191.17 1.65 1.7.987 8.389.63 10.379-1.6 0 0 .8-.9-.408-1.633-1.191-.681-4.662-1.106-6.006-1.157-1.276-.068-6.057 0-6.772-1.242 0 0-.681-.885.068-3.3.783-2.552 6.347-3.539 8.763-3.743 0 0 6.636-.272 7.878 1.089a.9.9 0 0 1 -.034.766m-18.818 14.969a2.566 2.566 0 0 1 -2.995-.34c-.476-.6-.647-2.944-.562-6.636.119-3.777.17-8.406 1.021-9.154.851-.732 1.361-.085 1.7.408a3.918 3.918 0 0 1 .851 2.246c.1 1.191.391 7.317.391 7.317s.374 5.581-.391 6.16m1.685-19.908a6.835 6.835 0 0 1 -5.31-.052c-.6 1.072-.953 1.4-1.4 1.463-.681.068-1.276-1.021-1.361-1.361a1.772 1.772 0 0 1 -.068-1.753 3.965 3.965 0 0 1 -1.191-3.862c.306-1.259 2.552-5.989 9.358-6.551 0 0 3.335-.238 3.914 1.531h.1s3.233 0 3.165 2.893c0 2.893-3.573 6.5-7.215 7.742m3.029-8.286c-2.144.34-5.445 3.2-7.027 5.564 2.433.442 6.687.272 8.593-3.573 0 0 .9-2.416-1.565-1.991m-9.401 1.871c-.681 1.106-.715 1.77-.391 2.212a16.872 16.872 0 0 1 4.339-4.526 5.028 5.028 0 0 0 -3.948 2.314m57.969 26.153a50.914 50.914 0 0 0 -3.658 13.578s-.17 1.14-1.106.766a5.4 5.4 0 0 1 -2.808-4.033c-.34-2.825.919-7.589 3.488-13.068a7.546 7.546 0 0 1 -.851-5.445 16.234 16.234 0 0 1 5.275-8.746s.544-.459.851-.306c.374.17.221 1.633-.085 2.382-.272.715-2.314 4.254-2.314 4.254a8.06 8.06 0 0 0 -.919 4.3c2.416-3.709 7.912-11.23 11.315-8.848 2.161 1.531 2.161 6.466.544 9.324-1.276 2.263-4.883 6.942-9.7 5.853m7.078-11.57a33.019 33.019 0 0 0 -5.275 7.453 8.71 8.71 0 0 0 4.254-1.77c.9-.8 2.978-2.961 2.654-5.819 0 0-.2-1.5-1.633.136m-76.224 13.566a27.766 27.766 0 0 1 -14.8.17c-.085 1.259-.221 1.787-.425 1.991-.238.272-2.212 1.4-3.3-.2a9.138 9.138 0 0 1 -.851-3.4 25.866 25.866 0 0 1 -10.311-8 2.814 2.814 0 0 1 -.17-3.862c1.48-1.838 6.381-3.692 10.771-4.424a29.191 29.191 0 0 1 1.1-7.917c.63-1.531 1.429-.17 2.144.851.579.766.936 4.05.97 6.67a28.4 28.4 0 0 1 7.776.681c4.186.715 6.976 2.859 6.755 5.275a3.882 3.882 0 0 1 -3.233 3.437 5.921 5.921 0 0 1 -2.212-.562c-.953-.442-.085-.851 1.021-1.327 1.225-.6.953-1.191.953-1.191-.442-1.361-5.87-2.263-11.264-2.263 0 2.978.119 7.912.2 10.788a30.446 30.446 0 0 0 6.6.562s13.79-.396 14.18-9.189c.426-8.814-13.782-17.254-24.247-19.907-10.443-2.741-16.368-.8-16.879-.546-.562.272-.051.374-.051.374a10.688 10.688 0 0 1 1.587.426c1.021.34.2.851.2.851-1.787.612-3.778.255-4.169-.562-.391-.8.255-1.531 1.021-2.6.715-1.106 1.531-1.072 1.531-1.072 12.932-4.512 28.722 3.57 28.722 3.57 14.77 7.453 17.288 16.216 17.016 19.619-.238 3.352-1.531 9.018-10.635 11.775m-28.416-12.184a1.038 1.038 0 0 0 -.442 1.77 23.562 23.562 0 0 0 9.358 5.955c.374-5.1.34-6.925.34-9.495-5 .34-7.9 1.157-9.256 1.77" fill="#3d3645" opacity=".64" transform="translate(-.113)"/></svg>