<svg xmlns="http://www.w3.org/2000/svg" width="73.409" height="73.409" viewBox="0 0 73.409 73.409">
  <g id="noun_Facial_Recognition_2450589" data-name="noun_Facial Recognition_2450589" transform="translate(5)">
    <g id="Group_23" data-name="Group 23" transform="translate(-5)">
      <path id="Path_54" data-name="Path 54" d="M1.223,18.352a1.223,1.223,0,0,0,1.223-1.223V4.894A2.447,2.447,0,0,1,4.894,2.447H17.129a1.223,1.223,0,1,0,0-2.447H4.894A4.894,4.894,0,0,0,0,4.894V17.129A1.223,1.223,0,0,0,1.223,18.352Z" transform="translate(0 0)" fill="#d30b44"/>
      <path id="Path_55" data-name="Path 55" d="M58.458,0H46.223a1.223,1.223,0,1,0,0,2.447H58.458a2.447,2.447,0,0,1,2.447,2.447V17.129a1.223,1.223,0,1,0,2.447,0V4.894A4.894,4.894,0,0,0,58.458,0Z" transform="translate(10.057 0)" fill="#d30b44"/>
      <path id="Path_56" data-name="Path 56" d="M17.129,60.905H4.894a2.447,2.447,0,0,1-2.447-2.447V46.223a1.223,1.223,0,1,0-2.447,0V58.458a4.894,4.894,0,0,0,4.894,4.894H17.129a1.223,1.223,0,1,0,0-2.447Z" transform="translate(0 10.057)" fill="#d30b44"/>
      <path id="Path_57" data-name="Path 57" d="M62.129,45a1.223,1.223,0,0,0-1.223,1.223V58.458a2.447,2.447,0,0,1-2.447,2.447H46.223a1.223,1.223,0,1,0,0,2.447H58.458a4.894,4.894,0,0,0,4.894-4.894V46.223A1.223,1.223,0,0,0,62.129,45Z" transform="translate(10.057 10.057)" fill="#d30b44"/>
      <path id="Path_58" data-name="Path 58" d="M72.185,29.693H55.774a4.713,4.713,0,0,0-.565-5.163,3.527,3.527,0,0,0-2.126-1.055c.93-2.925,2.06-8.408-.552-12.882C49.977,6.218,44.631,4,36.643,4S23.307,6.218,20.756,10.593c-2.616,4.48-1.48,9.97-.549,12.892a3.548,3.548,0,0,0-2.02,1.06,4.71,4.71,0,0,0-.554,5.148H1.223a1.223,1.223,0,1,0,0,2.447H18.7a5.326,5.326,0,0,1,.316,1.7,3.779,3.779,0,0,0,1,2.775,3.854,3.854,0,0,0,2.093,1.071,14.468,14.468,0,0,0,1.3,5.25,7.507,7.507,0,0,0,1.743,2.038l-.576,4.578-11.7,3.6A6.087,6.087,0,0,0,8.564,59v3.727a2.447,2.447,0,0,0,2.447,2.447H62.4a2.447,2.447,0,0,0,2.447-2.447V59a6.087,6.087,0,0,0-4.318-5.847l-11.7-3.6-.576-4.577A7.533,7.533,0,0,0,50,42.938a14.38,14.38,0,0,0,1.313-5.251,3.635,3.635,0,0,0,3.1-3.834,5.152,5.152,0,0,1,.3-1.713H72.185a1.223,1.223,0,1,0,0-2.447ZM22.971,11.658C25.1,8.2,29.7,6.447,36.643,6.447S48.186,8.2,50.316,11.658a11.86,11.86,0,0,1,1.155,8.088c-.817-2.588-2.18-5.455-4.4-6.818a2.422,2.422,0,0,0-3.232.624c-.737,1-2.643,2.683-7.129,2.683s-6.393-1.681-7.128-2.683a2.419,2.419,0,0,0-3.234-.623c-2.3,1.408-3.67,4.422-4.483,7.073a12.032,12.032,0,0,1,1.111-8.344ZM20.143,29.316c-.822-1.551-.633-2.611-.182-3.087a1.3,1.3,0,0,1,1.5-.207.839.839,0,0,0,.093.033,1.2,1.2,0,0,0,.179.065,1.223,1.223,0,0,0,.228.042c.032,0,.062.017.094.017s.051-.015.078-.016a1.244,1.244,0,0,0,.245-.045l.028-.009.033-.011a1.316,1.316,0,0,0,.133-.045,1.19,1.19,0,0,0,.2-.133c.02-.015.038-.028.056-.044a1.145,1.145,0,0,0,.13-.1,1.223,1.223,0,0,0,.128-.2c.01-.016.021-.029.029-.045a1.051,1.051,0,0,0,.069-.139.947.947,0,0,0,.034-.128,1.215,1.215,0,0,0,.046-.206c.27-2.244,1.567-8.337,4.338-10.059,1.015,1.375,3.54,3.683,9.105,3.683s8.09-2.307,9.083-3.67c2.622,1.605,3.926,7.09,4.3,9.6a1.206,1.206,0,0,0,.553,1.392,1.171,1.171,0,0,0,.3.1h0a1.211,1.211,0,0,0,.279.042,1.157,1.157,0,0,0,.252.011H51.5c.028,0,.051-.021.08-.026a1.194,1.194,0,0,0,.288-.072,1.316,1.316,0,0,1,1.569.16c.454.475.646,1.537-.188,3.117-.062.122-.115.235-.173.352H20.328C20.266,29.571,20.211,29.448,20.143,29.316ZM62.4,59v3.727H11.011V59a3.652,3.652,0,0,1,2.59-3.508L24.946,52c.958,2.046,3.806,5.83,11.759,5.83s10.8-3.784,11.759-5.83l11.344,3.489A3.652,3.652,0,0,1,62.4,59ZM46.471,50.409c-.28.9-1.98,4.977-9.767,4.977-7.808,0-9.5-4.1-9.767-4.975l.476-3.781c.79.5,1.56.93,2.174,1.248a1.036,1.036,0,0,1,.356.28A9.34,9.34,0,0,0,36.7,51.716a9.357,9.357,0,0,0,6.779-3.579,1.038,1.038,0,0,1,.355-.267c.612-.314,1.372-.743,2.157-1.238Zm5.49-16.517a1.468,1.468,0,0,1-.328,1.023,2.195,2.195,0,0,1-1.5.427,1.223,1.223,0,0,0-1.223,1.223,13.368,13.368,0,0,1-1.077,5.24c-.554,1.053-2.518,2.547-5.106,3.891a3.411,3.411,0,0,0-1.138.9,6.926,6.926,0,0,1-4.89,2.676,6.908,6.908,0,0,1-4.868-2.661A3.418,3.418,0,0,0,30.7,45.7c-2.6-1.352-4.568-2.846-5.12-3.9a13.8,13.8,0,0,1-1.072-5.235,1.223,1.223,0,0,0-1.223-1.223,2.208,2.208,0,0,1-1.51-.432,1.433,1.433,0,0,1-.313-1.02,7.4,7.4,0,0,0-.2-1.752h30.9a7.026,7.026,0,0,0-.193,1.756Z" transform="translate(0 0.894)" fill="#d30b44"/>
    </g>
  </g>
</svg>
