<svg height="39" viewBox="0 0 117 39" width="117" xmlns="http://www.w3.org/2000/svg"><g fill="#3d3645" opacity=".64"><path d="m50 20.5a9.5 9.5 0 0 1 -19 0 9.5 9.5 0 0 1 19 0zm-4.159 0a5.356 5.356 0 1 0 -10.683 0 5.356 5.356 0 1 0 10.683 0z"/><path d="m71 20.5a9.5 9.5 0 0 1 -19 0 9.5 9.5 0 0 1 19 0zm-4.159 0a5.356 5.356 0 1 0 -10.683 0 5.356 5.356 0 1 0 10.683 0z"/><path d="m91 11.584v17.359c0 7.141-4.089 10.057-8.924 10.057a8.955 8.955 0 0 1 -8.323-5.7l3.59-1.539a5.2 5.2 0 0 0 4.729 3.431c3.095 0 5.012-1.966 5.012-5.667v-1.388h-.144a6.314 6.314 0 0 1 -4.94 2.197c-4.695 0-9-4.211-9-9.63 0-5.458 4.3-9.7 9-9.7a6.424 6.424 0 0 1 4.944 2.162h.144v-1.577h3.912zm-3.624 9.116c0-3.4-2.206-5.894-5.012-5.894-2.845 0-5.228 2.489-5.228 5.894 0 3.37 2.383 5.824 5.228 5.824 2.807.004 5.012-2.45 5.012-5.824z"/><path d="m97 1v28h-4v-28z"/><path d="m113.489 23.631 3.326 2.159a9.771 9.771 0 0 1 -8.131 4.21 9.422 9.422 0 0 1 -9.684-9.5 9.141 9.141 0 0 1 9.2-9.5 9.021 9.021 0 0 1 8.351 6.044l.449 1.079-13.046 5.26a4.98 4.98 0 0 0 4.73 2.878 5.6 5.6 0 0 0 4.805-2.63zm-10.239-3.418 8.721-3.525a3.794 3.794 0 0 0 -3.621-2.013 5.274 5.274 0 0 0 -5.1 5.538z"/><path d="m15.094 17.831v-4.1h13.706a13.684 13.684 0 0 1 .2 2.474 13.6 13.6 0 0 1 -3.522 9.586 13.555 13.555 0 0 1 -10.378 4.209 15.149 15.149 0 0 1 -15.1-15 15.149 15.149 0 0 1 15.1-15 14.125 14.125 0 0 1 10.2 4.133l-2.873 2.892a10.323 10.323 0 0 0 -7.333-2.925 10.719 10.719 0 0 0 -10.673 10.9 10.719 10.719 0 0 0 10.673 10.9 9.918 9.918 0 0 0 7.515-3 8.526 8.526 0 0 0 2.2-5.074z"/></g></svg>