<svg xmlns="http://www.w3.org/2000/svg" width="51.691" height="45.131" viewBox="0 0 51.691 45.131">
  <g id="noun_Hammer_419385" transform="translate(40 -100)">
    <path id="Path_13" data-name="Path 13" d="M51.382,23.505l-8.516,8.516a1.077,1.077,0,0,1-1.5,0l-3.74-3.74a1.077,1.077,0,0,1,0-1.5l.978-.978-3.855-3.855L6.1,50.605a.953.953,0,0,1-.748.288,1.094,1.094,0,0,1-.748-.288L.289,46.29a1.077,1.077,0,0,1,0-1.5l28.6-28.654L22.5,9.754a1.116,1.116,0,0,1,0-1.5l2.186-2.186a1.137,1.137,0,0,1,1.5-.058,7.361,7.361,0,0,0,5.063,1.9A8.8,8.8,0,0,0,32.97,7.74a1.021,1.021,0,0,1,.978.288L45.111,19.19l.978-.978a1.077,1.077,0,0,1,1.5,0l3.74,3.74A1.1,1.1,0,0,1,51.382,23.505Z" transform="translate(-39.987 94.238)" fill="#fcfcfc"/>
  </g>
</svg>
