<svg height="54" viewBox="0 0 80 54" width="80" xmlns="http://www.w3.org/2000/svg"><path d="m47.591 19.434a5.37 5.37 0 0 1 -.978 3.156h2.054v-15.86h-6.574v6.482c3.557 1.1 5.5 3.373 5.5 6.223zm-11.373-6.792a15.373 15.373 0 0 1 3.922.627c-2.236-.391-5.711.174-7.509 1.583v7.738h6.589v-8.806a8.658 8.658 0 0 1 3.16 1.278v7.528h1.42a7.128 7.128 0 0 1 -6.045 2.1v.318c6.271.492 8.919-2.467 8.919-5.8 0-3.926-3.685-6.219-7.463-6.687v-5.791h-6.584v5.855c-4.263.852-8.433 3.38-8.433 7.57 0 6.435 9.024 10.428 16.882 10.428 11.936 0 21.118-5.754 21.118-13.831 0-9.782-13.256-16.752-23.677-16.752-11.936 0-20.722 7.562-20.722 15.639 0 4.19 2.353 7.682 5.327 10.133l.221-.151a11.742 11.742 0 0 1 -4.473-9.149c.621-8.852 11.548-13.827 21.273-13.827 6.873 0 19.228 1.58 19.228 13.045 0 5.982-6.4 13.769-19.872 13.769-6.884 0-12.238-3.682-12.238-8.976 0-4.577 3.6-7.841 8.957-7.841zm-26.218 40.998v-.875h2.3v-7.837h-6.181v7.837h2.365v.875h-8.484v-.875h2.167v-15.957h-2.167v-.887h8.484v.887h-2.365v7.07h6.181v-7.07h-2.3v-.887h8.426v.887h-2.19v15.957h2.19v.875zm12.135-17.715h3.844v2.11h-3.844zm-1.891 17.715v-.852h2.062v-11.02h-2.062v-.883h5.894v11.9h1.949v.852h-7.843zm8.973 0v-.875h2.139v-18.3h-2.138v-.836h5.991v19.132h2.007v.875h-8zm14.005 0c-1.767 0-3.223-.8-3.223-2.738v-9.153h-2.084v-.86h2.085v-4.921h3.6v4.922h2.974v.86h-2.974v11.042h3.02v.852h-3.4zm11.6.36c-4.058 0-7.424-2.54-7.424-6.784 0-4.089 3.429-6.652 7.319-6.652a6.815 6.815 0 0 1 7.152 6.978c0 3.957-3.2 6.459-7.047 6.459zm-3.172-6.834c0 1.127-.047 3.663.532 4.689a2.757 2.757 0 0 0 2.531 1.409c2.974 0 3.024-3.245 3-5.413v-.809c-.031-2.32.272-5.649-3.017-5.649-3.145 0-3.048 3.52-3.048 5.773zm20.724 6.474v-.852h1.7v-7.752c0-1.409 0-3.14-1.86-3.14a3.753 3.753 0 0 0 -3.2 2.761 8.693 8.693 0 0 0 -.12 1.928v6.2h1.966v.852h-7.851v-.852h2.062v-11.017h-2.062v-.883h5.891v1.963a5.412 5.412 0 0 1 2.435-1.882 6.175 6.175 0 0 1 2.322-.476 6.837 6.837 0 0 1 1.728.244c2.093.6 2.6 1.963 2.6 3.922v8.131h2.015v.852z" fill="#3d3645" fill-rule="evenodd" opacity=".64"/></svg>