<svg height="34" viewBox="0 0 108 34" width="108" xmlns="http://www.w3.org/2000/svg"><g fill="#3d3645" opacity=".64" transform="translate(0 -.577)"><path d="m92.042 8.577 13.958-.983c-3.116-4.114-9.721-5.711-11.279-6.018l-9.721 2.457c3.49 1.044 5.982 2.64 7.042 4.544"/><path d="m103.014 24.577c5-5.36 5.793-10.721 4.33-14l-14.392.441v.757c-.122 2.9-2.683 5.8-6.952 8.324z"/><path d="m72.055 10.577 15.945-1.286c-.682-1.786-2.606-3.5-5.584-4.714l-11.416 3.357a1.936 1.936 0 0 1 1.055 2.643"/><path d="m77.127 2.955a40.422 40.422 0 0 1 5.848.562l8.025-2.436a91.557 91.557 0 0 0 -14.558-.375l-12.442 6.494a27.033 27.033 0 0 1 5.972.375l11.26-3.436a35.868 35.868 0 0 0 -6.346-1h.124a5.7 5.7 0 0 1 2.115-.187"/><path d="m60.807 7.237 10.193-5.66c-1.167.057-2.272.113-3.5.226-2.211.17-3.991.34-6.2.566l-4.3 5.208c1.351-.17 2.64-.283 3.807-.34"/><path d="m56.306 7.254 2.694-5.677c-2.327.387-3.8.645-6 1.1l1.286 4.9c.673-.129 1.408-.194 2.02-.323"/><path d="m52 8.248-2.625-4.671c-1.437.329-3 .724-4.375 1.184a63.711 63.711 0 0 1 5.188 3.816 14.912 14.912 0 0 0 1.812-.329"/><path d="m81.581 16.586a2.471 2.471 0 1 0 2.419 2.471 2.449 2.449 0 0 0 -2.419-2.471zm-32.381-3.167 4.029 5.381h1.671v-9.056h-1.609v5.448l-4.033-5.448h-1.675v9.056h1.617zm-3.722 13.81-4.098-5.448h-1.613v9.059h1.613v-5.449l3.97 5.448h1.737v-9.058h-1.613zm-10.985-17.485h-2.233v9.056h5.025l.372-1.584-3.164.19zm-3.288 7.475-3.536.127v-7.6h-2.233v9.054h5.4zm-12.905-5.384a1.79 1.79 0 0 1 1.613-.887h.124a1.952 1.952 0 0 1 1.551.76 4.015 4.015 0 0 1 .682 2.471 4.927 4.927 0 0 1 -.558 2.534 1.862 1.862 0 0 1 -1.612.887h-.124a1.757 1.757 0 0 1 -1.489-.76 4.641 4.641 0 0 1 -.682-2.471 3.675 3.675 0 0 1 .5-2.534zm1.613 7.222a4.491 4.491 0 0 0 3.35-1.267 4.853 4.853 0 0 0 1.241-3.484 4.7 4.7 0 0 0 -1.241-3.421 4.211 4.211 0 0 0 -3.288-1.267 4.443 4.443 0 0 0 -3.288 1.267 4.853 4.853 0 0 0 -1.241 3.484 4.8 4.8 0 0 0 1.241 3.421 4.2 4.2 0 0 0 3.226 1.267zm-8.126 1.773 2.357-1.394v-12.859h-2.357v6.335h-5.769v-6.335h-2.358v6.335h-3.04l-.62 1.588h3.66v7.475h2.3v-7.475h5.77v6.33zm39.394 3.041a1.79 1.79 0 0 1 1.613-.887h.124a1.952 1.952 0 0 1 1.551.76 4.855 4.855 0 0 1 .682 2.471 4.927 4.927 0 0 1 -.558 2.534 1.862 1.862 0 0 1 -1.613.887h-.124a1.757 1.757 0 0 1 -1.489-.76 4.641 4.641 0 0 1 -.682-2.471 3.6 3.6 0 0 1 .5-2.534zm1.675-2.281a4.443 4.443 0 0 0 -3.288 1.267 4.96 4.96 0 0 0 -1.241 3.484 4.8 4.8 0 0 0 1.241 3.421 4.209 4.209 0 0 0 3.226 1.33 4.491 4.491 0 0 0 3.35-1.267 4.853 4.853 0 0 0 1.241-3.484 4.8 4.8 0 0 0 -1.241-3.421 4.345 4.345 0 0 0 -3.288-1.33zm-16.812.19h2.233v9.059h-2.233zm23.2-10.706a12.517 12.517 0 0 1 1.551.063 2.058 2.058 0 0 1 .869.633 3.815 3.815 0 0 1 .682 2.154 3.8 3.8 0 0 1 -.434 2.534 2.664 2.664 0 0 1 -1.861.95h-1.363v-6.333c.124.063.372 0 .558 0zm1.117-1.33h-3.844v9.056h3.722a4.443 4.443 0 0 0 3.288-1.267 4.725 4.725 0 0 0 1.179-3.484 4.424 4.424 0 0 0 -1.117-3.231 4.63 4.63 0 0 0 -3.226-1.077zm-42.558 23c-2.171 0-4.839-.887-4.839-5.131 0-3.421 1.861-5.638 4.839-5.638a3.554 3.554 0 0 1 2.544.76l.31.253v-2.031l-.124-.063a9.984 9.984 0 0 0 -2.978-.443 6.98 6.98 0 0 0 -7.258 7.1c0 6.335 5.087 7.032 7.258 7.032h.124a10.341 10.341 0 0 0 2.606-.317l.062-.063 1.241-2.851-.558.38a6.31 6.31 0 0 1 -3.226 1.014zm14.827-7.348-.62-.38a9.036 9.036 0 0 1 -.931-.57.782.782 0 0 1 -.248-.57.8.8 0 0 1 .372-.7 1.766 1.766 0 0 1 .869-.253 4.98 4.98 0 0 1 2.047.443l.248.127.124-1.52-.186-.063a9.252 9.252 0 0 0 -2.544-.317 3.5 3.5 0 0 0 -2.233.7 2.307 2.307 0 0 0 -.869 1.9 2.614 2.614 0 0 0 .5 1.52 6.01 6.01 0 0 0 1.737 1.33l.558.317a4.733 4.733 0 0 1 .931.633 1.02 1.02 0 0 1 .31.633.949.949 0 0 1 -.372.824 1.549 1.549 0 0 1 -.993.253 6.853 6.853 0 0 1 -2.233-.443l-.248-.063v1.647l.186.063a11.927 11.927 0 0 0 2.357.253 4.418 4.418 0 0 0 2.606-.7 2.569 2.569 0 0 0 .993-2.027 2.664 2.664 0 0 0 -.5-1.584 6.926 6.926 0 0 0 -1.861-1.457zm10.487-10.14h-2.234l1.117-2.856zm-1.675-5.512-3.537 9.056h1.551l.869-2.281h3.226l.869 2.281h2.3l-3.541-9.056z"/><path d="m25.287 27.052h-2.266l1.133-2.832zm-1.7-5.476-3.587 9h1.636l.881-2.266h3.273l.881 2.266h2.329l-3.587-9z"/><path d="m72.223 12.017a17.983 17.983 0 0 1 -5.223 2.863l11.8 2.7a3.7 3.7 0 0 1 3.38-1.982 3.924 3.924 0 0 1 2.274.716c2.765-1.706 4.24-3.3 4.547-4.734l-16.777.44z"/><path d="m89.481 6.066a18.665 18.665 0 0 0 -6.166-2.426c-.126 0-.189-.064-.315-.064 4.215 1.532 6.669 3.447 6.921 5.617.315 2.426-1.258 4.6-5.159 7.277a3.379 3.379 0 0 1 .692 2.106c4.278-2.808 6.606-5.876 6.546-8.488.063-1.532-.944-2.936-2.517-4.021"/></g></svg>