<svg height="91.258" viewBox="0 0 91.254 91.258" width="91.254" xmlns="http://www.w3.org/2000/svg"><path d="m102.262 79.635-66.872-66.874a2.991 2.991 0 0 0 -4.232 0l-16.648 16.646a8.988 8.988 0 0 0 0 12.7l58.408 58.41a8.982 8.982 0 0 0 12.7 0l16.645-16.647a2.993 2.993 0 0 0 -.001-4.235zm-20.877 16.646a3.068 3.068 0 0 1 -4.234 0l-58.409-58.408a3 3 0 0 1 0-4.233l14.532-14.53 7.2 7.2-5.644 5.643a2.993 2.993 0 0 0 4.233 4.232l5.637-5.648 6.771 6.772-5.642 5.643a2.993 2.993 0 0 0 4.233 4.232l5.642-5.643 6.773 6.772-5.644 5.643a2.993 2.993 0 0 0 4.233 4.232l5.644-5.643 6.771 6.772-5.638 5.643a2.993 2.993 0 0 0 4.233 4.232l5.642-5.643 6.773 6.772-5.644 5.643a2.993 2.993 0 0 0 4.233 4.236l5.644-5.643 7.195 7.2z" fill="#d30b44" transform="translate(-11.885 -11.884)"/></svg>