<svg xmlns="http://www.w3.org/2000/svg" width="31.681" height="52.813" viewBox="0 0 31.681 52.813">
  <g id="noun_USB_2144461" transform="translate(-118 -26)">
    <path id="Path_14" data-name="Path 14" d="M128.56,65.716V77.47a1.314,1.314,0,0,0,1.332,1.343h7.9a1.307,1.307,0,0,0,1.332-1.343V65.716a15.83,15.83,0,0,0,10.56-14.945V39.258a1.4,1.4,0,0,0-1.354-1.435h-2.319V27.343a1.372,1.372,0,0,0-1.4-1.343H123.074a1.365,1.365,0,0,0-1.4,1.343v10.48h-2.319A1.405,1.405,0,0,0,118,39.258V50.771A15.83,15.83,0,0,0,128.56,65.716Zm7.805,10.331h-5.051V66.427a15.536,15.536,0,0,0,5.051,0ZM124.428,28.755h18.825v9.068H124.428Zm-3.673,11.823h26.171V50.759a13.086,13.086,0,1,1-26.171,0Z" fill="#fcfcfc"/>
  </g>
</svg>
