<svg height="98.84" viewBox="0 0 88.104 98.84" width="88.104" xmlns="http://www.w3.org/2000/svg"><g fill="#d30b44"><path d="m59.367 53.458c-2.21-.947-2.842-3.158-1.895-5.368a3.707 3.707 0 0 1 5.053-1.895 44.035 44.035 0 1 1 -62.525 40.105 44.277 44.277 0 0 1 25.578-40.1 4.168 4.168 0 0 1 5.368 1.895 4.063 4.063 0 0 1 -1.895 5.368 36 36 0 1 0 30.315 0z" transform="translate(0 -31.353)"/><path d="m127 4.105a4.18 4.18 0 0 1 4.105-4.105 3.916 3.916 0 0 1 3.789 4.105v40.1a3.916 3.916 0 0 1 -3.789 4.105 4.18 4.18 0 0 1 -4.105-4.1z" transform="translate(-86.896)"/></g></svg>