<svg xmlns="http://www.w3.org/2000/svg" width="85.099" height="85.099" viewBox="0 0 85.099 85.099">
  <g id="noun_Speaker_1806847" transform="translate(-4 -4)">
    <g id="Group_17" data-name="Group 17" transform="translate(4 4)">
      <path id="Path_31" data-name="Path 31" d="M18.892,10.7h-7.8A6.817,6.817,0,0,0,4,17.437V41.194a7.048,7.048,0,0,0,7.092,6.737h7.8Z" transform="translate(-4 13.057)" fill="#d30b44"/>
      <path id="Path_32" data-name="Path 32" d="M40.148,34.494V4L9.3,27.757V64.987L40.148,89.1V58.6a13.793,13.793,0,0,0,0-24.111Z" transform="translate(9.493 -4)" fill="#d30b44"/>
    </g>
    <path id="Path_33" data-name="Path 33" d="M21.891,8.4,18.7,15.137a24.735,24.735,0,0,1,0,41.131L21.891,63A31.566,31.566,0,0,0,37.138,36.057,31.877,31.877,0,0,0,21.891,8.4Z" transform="translate(37.423 11.201)" fill="#d30b44"/>
    <path id="Path_34" data-name="Path 34" d="M47.348,44.513A45.393,45.393,0,0,0,23.591,4.8L20.4,11.182a38.233,38.233,0,0,1,0,66.661l3.191,6.382A45.393,45.393,0,0,0,47.348,44.513Z" transform="translate(41.751 2.037)" fill="#d30b44"/>
  </g>
</svg>
