<svg xmlns="http://www.w3.org/2000/svg" width="40" height="74" viewBox="0 0 40 74">
  <g id="noun_USB_2268095" transform="translate(-9.867 -277.513)">
    <path id="Path_35" data-name="Path 35" d="M10.119,272.79v16.456h34.42V272.79ZM7.33,292.631v33.432c0,11.53,8.925,20.727,20,20.727s20-9.2,20-20.727V292.631ZM28.7,296.3a2.533,2.533,0,0,1,1.216.279,1.6,1.6,0,0,1,.911,1.4v21.176h2.826v-6.09a3.071,3.071,0,0,1,.312-1.416,1.715,1.715,0,0,1,1.522-1.024h.69a1.718,1.718,0,0,1,1.524,1.024,3.073,3.073,0,0,1,.31,1.416v7.571a3.168,3.168,0,0,1-.254,1.292c-.115.262-.454.471-.736.7a2.439,2.439,0,0,1-1.929.86H30.83v7.971a1.607,1.607,0,0,1-.915,1.405,2.755,2.755,0,0,1-2.421,0,1.609,1.609,0,0,1-.914-1.405V313.885H22.445a2.376,2.376,0,0,1-1.875-.839c-.271-.223-.6-.427-.715-.679a3.061,3.061,0,0,1-.245-1.25v-7.2a2.968,2.968,0,0,1,.3-1.369,1.69,1.69,0,0,1,1.5-1.006h.655a1.691,1.691,0,0,1,1.5,1.006,2.967,2.967,0,0,1,.3,1.369v5.734H26.58V297.981a1.608,1.608,0,0,1,.914-1.4,2.248,2.248,0,0,1,.683-.157,1.22,1.22,0,0,1,.526-.122Z" transform="translate(2.538 4.723)" fill="#d30b44"/>
  </g>
</svg>
