<svg xmlns="http://www.w3.org/2000/svg" width="62.139" height="60.88" viewBox="0 0 62.139 60.88">
  <g id="noun_weather_1021120" transform="translate(-17.001 -17.54)">
    <path id="Path_3" data-name="Path 3" d="M48.27,28.21a2.14,2.14,0,0,0,2.14-2.14V19.68a2.14,2.14,0,0,0-4.28,0v6.39a2.14,2.14,0,0,0,2.14,2.14Z" fill="#fcfcfc"/>
    <path id="Path_4" data-name="Path 4" d="M30.94,34.14a2.14,2.14,0,0,0,3-3l-4.52-4.52a2.14,2.14,0,0,0-3,3Z" fill="#fcfcfc"/>
    <path id="Path_5" data-name="Path 5" d="M65.59,62.74a2.14,2.14,0,0,0-3,3l4.52,4.52a2.14,2.14,0,1,0,3-3Z" fill="#fcfcfc"/>
    <path id="Path_6" data-name="Path 6" d="M19.51,50.58H25.9a2.14,2.14,0,0,0,0-4.28H19.51a2.14,2.14,0,0,0,0,4.28Z" fill="#fcfcfc"/>
    <path id="Path_7" data-name="Path 7" d="M77,46.3H70.63a2.14,2.14,0,1,0,0,4.28H77a2.14,2.14,0,0,0,0-4.28Z" fill="#fcfcfc"/>
    <path id="Path_8" data-name="Path 8" d="M64.08,34.76a2.13,2.13,0,0,0,1.51-.63l4.52-4.52a2.14,2.14,0,1,0-3-3l-4.52,4.52a2.14,2.14,0,0,0,1.51,3.65Z" fill="#fcfcfc"/>
    <path id="Path_9" data-name="Path 9" d="M62.15,57.38a16.52,16.52,0,1,0-30.4-8.94,10.55,10.55,0,0,0,.07,1.49,11.19,11.19,0,0,0-5.92,6.42,11.15,11.15,0,0,0,1,22,2.14,2.14,0,0,0,.54.07h20.4a2.14,2.14,0,0,0,.54-.07,11.12,11.12,0,0,0,8.83-16.07,16.55,16.55,0,0,0,4.94-4.9ZM47.7,74.15H27.54a6.87,6.87,0,0,1,.14-13.71,2.14,2.14,0,0,0,2-1.72,6.88,6.88,0,0,1,13.51.15,2.14,2.14,0,0,0,2.57,1.71,6.87,6.87,0,1,1,2,13.57Zm6.88-15.23a11.1,11.1,0,0,0-7.34-2.78h-.39a11.13,11.13,0,0,0-10.44-7.22H36v-.5a12.24,12.24,0,1,1,18.58,10.5Z" fill="#fcfcfc"/>
  </g>
</svg>
